<?xml version="1.0" encoding="UTF-8" standalone="no"?>
<!-- Created with Inkscape (http://www.inkscape.org/) -->

<svg
   version="1.1"
   id="svg1"
   width="400"
   height="300"
   viewBox="0 0 400 300"
   sodipodi:docname="foliation.svg"
   inkscape:version="1.3 (0e150ed6c4, 2023-07-21)"
   inkscape:export-filename="foliation.pdf"
   inkscape:export-xdpi="96"
   inkscape:export-ydpi="96"
   xmlns:inkscape="http://www.inkscape.org/namespaces/inkscape"
   xmlns:sodipodi="http://sodipodi.sourceforge.net/DTD/sodipodi-0.dtd"
   xmlns="http://www.w3.org/2000/svg"
   xmlns:svg="http://www.w3.org/2000/svg">
  <sodipodi:namedview
     id="namedview1"
     pagecolor="#ffffff"
     bordercolor="#000000"
     borderopacity="0.25"
     inkscape:showpageshadow="2"
     inkscape:pageopacity="0.0"
     inkscape:pagecheckerboard="0"
     inkscape:deskcolor="#d1d1d1"
     inkscape:zoom="1.3965136"
     inkscape:cx="247.40182"
     inkscape:cy="104.9041"
     inkscape:window-width="1600"
     inkscape:window-height="874"
     inkscape:window-x="0"
     inkscape:window-y="26"
     inkscape:window-maximized="1"
     inkscape:current-layer="svg1">
    <inkscape:page
       x="0"
       y="0"
       inkscape:label="1"
       id="page1"
       width="400"
       height="300"
       margin="0"
       bleed="0" />
  </sodipodi:namedview>
  <defs
     id="defs1" />
  <g
     id="g1"
     inkscape:groupmode="layer"
     inkscape:label="1"
     style="display:inline">
    <path
       id="path1"
       d="M 48.259088,240.25426 C 71.691087,202.72893 20.889755,165.28093 40.123088,127.06227 93.98842,120.4116 138.92042,76.942274 160.70709,26.452942 c -19.22933,38.213332 31.572,75.666668 8.14,113.186658 -21.792,50.49066 -66.724,93.964 -120.588002,100.61466 z"
       style="fill:#018800;fill-opacity:0.131455;fill-rule:nonzero;stroke:none;stroke-width:1.33333" />
    <path
       id="path2"
       d="m 48.259088,240.25424 c 23.431999,-37.52533 -27.369333,-74.97333 -8.136,-113.192 53.865332,-6.65066 98.797332,-50.119991 120.584002,-100.609323 -19.22933,38.213332 31.572,75.666673 8.14,113.186653 -21.792,50.49067 -66.724,93.964 -120.588002,100.61467 z"
       style="fill:none;stroke:#000000;stroke-width:1.13386;stroke-linecap:butt;stroke-linejoin:miter;stroke-miterlimit:4;stroke-dasharray:none;stroke-opacity:1" />
    <path
       id="path3"
       d="m 108.25909,255.25426 c 23.432,-37.52533 -27.369336,-74.97333 -8.136,-113.19199 53.86533,-6.65067 98.79733,-50.119997 120.584,-100.609329 -19.22934,38.213333 31.572,75.666659 8.14,113.186659 -21.792,50.49066 -66.724,93.964 -120.588,100.61466 z"
       style="fill:#018800;fill-opacity:0.131455;fill-rule:nonzero;stroke:none;stroke-width:1.33333" />
    <path
       id="path4"
       d="m 108.25909,255.25424 c 23.432,-37.52533 -27.369336,-74.97333 -8.136,-113.192 53.86533,-6.65067 98.79733,-50.119991 120.584,-100.609323 -19.22934,38.213332 31.572,75.666663 8.14,113.186653 -21.792,50.49067 -66.724,93.964 -120.588,100.61467 z"
       style="fill:none;stroke:#000000;stroke-width:1.13386;stroke-linecap:butt;stroke-linejoin:miter;stroke-miterlimit:4;stroke-dasharray:none;stroke-opacity:1" />
    <path
       id="path5"
       d="m 183.25909,270.25426 c 23.432,-37.52533 -27.36934,-74.97333 -8.136,-113.19199 53.86533,-6.65067 98.79733,-50.12 120.58399,-100.609329 -19.22933,38.213332 31.572,75.666659 8.14,113.186659 -21.792,50.49066 -66.72399,93.964 -120.58799,100.61466 z"
       style="fill:#018800;fill-opacity:0.131455;fill-rule:nonzero;stroke:none;stroke-width:1.33333" />
    <path
       id="path6"
       d="m 183.25909,270.25424 c 23.432,-37.52533 -27.36934,-74.97333 -8.136,-113.192 53.86533,-6.65067 98.79733,-50.12 120.58399,-100.609324 -19.22933,38.213333 31.572,75.666654 8.14,113.186654 -21.792,50.49067 -66.72399,93.964 -120.58799,100.61467 z"
       style="fill:none;stroke:#000000;stroke-width:1.13386;stroke-linecap:butt;stroke-linejoin:miter;stroke-miterlimit:4;stroke-dasharray:none;stroke-opacity:1" />
    <path
       id="path8"
       d="M 63.970312,46.756977 C 114.67819,52.23082 140.11826,102.0617 173.9489,133.56708 c 48.5258,46.94422 115.40808,69.4596 180.95705,79.01788 l 4.91784,0.4066"
       style="fill:none;stroke:#0000f4;stroke-width:1.13386;stroke-linecap:butt;stroke-linejoin:miter;stroke-miterlimit:4;stroke-dasharray:none;stroke-opacity:1" />
    <path
       id="path17"
       d="m 185.91538,142.39883 c -0.55005,1.87428 -2.52224,2.95048 -4.39654,2.40043 -1.87811,-0.55116 -2.95598,-2.52246 -2.40592,-4.39674 0.55155,-1.87941 2.52373,-2.9556 4.40186,-2.40443 1.87429,0.55006 2.95215,2.52133 2.4006,4.40074 z"
       style="fill:#010000;fill-opacity:1;fill-rule:nonzero;stroke:none;stroke-width:1.33333" />
    <path
       id="path17-3"
       d="m 148.18133,102.62629 c -0.55005,1.87431 -2.52223,2.9505 -4.39651,2.40045 -1.87815,-0.55118 -2.95599,-2.52245 -2.40594,-4.39675 0.55154,-1.879404 2.52373,-2.9556 4.40187,-2.404424 1.87428,0.550036 2.95212,2.521334 2.40058,4.400724 z"
       style="fill:#010000;fill-opacity:1;fill-rule:nonzero;stroke:none;stroke-width:1.33333" />
    <path
       id="path21"
       d="m 249.79977,182.66946 c -0.55155,1.87941 -2.5226,2.95176 -4.3969,2.40171 -1.87812,-0.55116 -2.95709,-2.51861 -2.40555,-4.39801 0.55117,-1.87814 2.52225,-2.95049 4.40036,-2.39932 1.8743,0.55004 2.95327,2.51749 2.40209,4.39562 z"
       style="fill:#010000;fill-opacity:1;fill-rule:nonzero;stroke:none;stroke-width:1.33333" />
  </g>
  <g
     inkscape:label=""
     transform="translate(41.511779,36.50572)"
     id="g14">
    <g
       fill="#000000"
       fill-opacity="1"
       id="g13"
       transform="matrix(1.33333,0,0,1.33333,-3.699,-2.61817)">
      <g
         id="g12"
         transform="translate(1.993,13.948)">
        <path
           d="M 3.25,-0.84375 C 2.234375,-1.234375 1.65625,-2.015625 1.65625,-3.3125 c 0,-2.359375 1.734375,-5.5 3.859375,-6.71875 C 5.8125,-9.75 6.21875,-9.75 6.546875,-9.75 c 0.421875,0 1.484375,0 1.484375,-0.5 0,-0.40625 -0.78125,-0.421875 -1.328125,-0.421875 -0.34375,0 -0.640625,0 -1.09375,0.1875 -0.09375,-0.21875 -0.15625,-0.46875 -0.15625,-0.71875 0,-0.3125 0.078125,-0.5625 0.078125,-0.609375 0,-0.109375 -0.09375,-0.171875 -0.171875,-0.171875 -0.28125,0 -0.28125,0.640625 -0.28125,0.78125 0,0.15625 0,0.515625 0.203125,0.875 -2,1.03125 -4.5,4.25 -4.5,7.46875 0,2.359375 1.5625,2.90625 2.453125,3.21875 0.234375,0.078125 0.78125,0.265625 1,0.34375 0.703125,0.25 1.375,0.46875 1.375,1.296875 0,0.5 -0.359375,1.171875 -1,1.171875 C 4.265625,3.171875 3.8125,3.046875 3.375,2.625 3.3125,2.546875 3.265625,2.515625 3.1875,2.515625 c -0.140625,0 -0.171875,0.140625 -0.171875,0.171875 0,0.171875 0.734375,0.828125 1.59375,0.828125 1.109375,0 1.859375,-1.15625 1.859375,-2.046875 0,-1.203125 -1,-1.5625 -1.625,-1.765625 z m 2.640625,-9.359375 c 0.25,-0.125 0.5,-0.125 0.796875,-0.125 0.546875,0 0.59375,0.01563 0.9375,0.09375 -0.203125,0.09375 -0.34375,0.140625 -1.0625,0.140625 -0.359375,0 -0.484375,0 -0.671875,-0.109375 z m 0,0"
           id="path11" />
      </g>
    </g>
  </g>
  <g
     inkscape:label=""
     transform="translate(307.45332,42.348525)"
     id="g15">
    <g
       fill="#000000"
       fill-opacity="1"
       id="g3"
       transform="matrix(1.33333,0,0,1.33333,-1.99067,-0.551)">
      <g
         id="use2"
         transform="translate(1.993,13.757)">
        <path
           d="m 5.265625,-9.890625 c 0.3125,0.90625 0.6875,2.1875 1.46875,4.3125 1.078125,2.921875 1.5625,4 2.609375,5.625 C 9.59375,0.40625 9.609375,0.4375 9.765625,0.4375 10,0.4375 10.359375,0.21875 10.5625,0.09375 10.796875,-0.140625 10.8125,-0.15625 11,-1 c 1.03125,-4.53125 2.34375,-9.25 2.6875,-10.03125 0.01563,-0.04687 0.359375,-0.6875 2.484375,-0.734375 0.34375,-0.01563 0.671875,-0.921875 0.671875,-1.296875 0,-0.28125 -0.109375,-0.28125 -0.34375,-0.28125 -1.71875,0 -2.5,0.71875 -2.703125,0.953125 -0.484375,0.609375 -0.90625,1.875 -1.6875,4.75 -0.609375,2.203125 -1.15625,4.4375 -1.6875,6.65625 -0.953125,-1.421875 -1.484375,-2.78125 -2.3125,-5 -0.90625,-2.453125 -1.46875,-4.25 -1.921875,-5.796875 -0.109375,-0.34375 -0.125,-0.359375 -0.28125,-0.359375 -0.03125,0 -0.375,0 -0.875,0.421875 -0.171875,0.140625 -0.1875,0.296875 -0.203125,0.484375 C 4.34375,-6.640625 2.71875,-2.125 2.25,-1.296875 2.125,-1.03125 1.90625,-0.71875 1.5625,-0.71875 c -0.171875,0 -0.84375,-0.09375 -1.28125,-0.5 -0.09375,-0.078125 -0.125,-0.078125 -0.140625,-0.078125 -0.28125,0 -0.640625,0.859375 -0.640625,1.28125 0,0.53125 1.046875,0.875 1.53125,0.875 1.109375,0 1.984375,-2.421875 2.25,-3.21875 1.125,-3.109375 1.65625,-5.6875 1.984375,-7.53125 z m 0,0"
           id="path14" />
      </g>
    </g>
    <g
       fill="#000000"
       fill-opacity="1"
       id="g4"
       transform="matrix(1.33333,0,0,1.33333,-1.99067,-0.551)">
      <g
         id="use3"
         transform="translate(16.118,16.339001)">
        <path
           d="m 2.265625,-0.578125 c -0.71875,-0.28125 -1.125,-0.828125 -1.125,-1.71875 0,-1.640625 1.21875,-3.828125 2.6875,-4.671875 0.21875,0.203125 0.484375,0.203125 0.71875,0.203125 0.296875,0 1.015625,0 1.015625,-0.34375 0,-0.296875 -0.53125,-0.296875 -0.90625,-0.296875 -0.25,0 -0.453125,0 -0.765625,0.125 -0.0625,-0.15625 -0.09375,-0.328125 -0.09375,-0.5 0,-0.21875 0.046875,-0.375 0.046875,-0.421875 0,-0.0625 -0.0625,-0.109375 -0.125,-0.109375 -0.1875,0 -0.1875,0.4375 -0.1875,0.53125 0,0.109375 0,0.359375 0.140625,0.609375 C 2.28125,-6.453125 0.53125,-4.21875 0.53125,-1.984375 0.53125,-0.34375 1.625,0.03125 2.25,0.25 c 0.15625,0.046875 0.53125,0.1875 0.6875,0.234375 0.5,0.171875 0.953125,0.328125 0.953125,0.90625 0,0.34375 -0.25,0.8125 -0.6875,0.8125 -0.234375,0 -0.5625,-0.09375 -0.859375,-0.390625 C 2.296875,1.765625 2.265625,1.75 2.21875,1.75 c -0.109375,0 -0.125,0.09375 -0.125,0.109375 0,0.125 0.515625,0.578125 1.109375,0.578125 C 3.96875,2.4375 4.5,1.640625 4.5,1.015625 4.5,0.171875 3.796875,-0.0625 3.359375,-0.203125 Z M 4.09375,-7.09375 c 0.171875,-0.078125 0.34375,-0.078125 0.546875,-0.078125 0.375,0 0.421875,0.015625 0.65625,0.078125 C 5.15625,-7.046875 5.0625,-7 4.546875,-7 4.296875,-7 4.21875,-7 4.09375,-7.09375 Z m 0,0"
           id="path15" />
      </g>
    </g>
  </g>
  <g
     inkscape:label=""
     transform="translate(199.71926,233.55487)"
     id="g10">
    <g
       fill="#000000"
       fill-opacity="1"
       id="g8"
       transform="matrix(1.33333,0,0,1.33333,-3.09483,-2.415)">
      <g
         id="g7"
         transform="translate(1.993,9.4049997)">
        <path
           d="M 6.515625,-2.09375 C 6.46875,-2.9375 6.4375,-4.265625 5.78125,-5.8125 5.4375,-6.6875 4.859375,-7.59375 3.59375,-7.59375 c -2.109375,0 -3.265625,2.703125 -3.265625,3.15625 0,0.15625 0.125,0.15625 0.171875,0.15625 0.15625,0 0.15625,-0.046875 0.234375,-0.265625 0.375,-1.0625 1.46875,-1.90625 2.65625,-1.90625 2.390625,0 2.734375,2.671875 2.734375,4.375 0,1.078125 -0.109375,1.4375 -0.21875,1.78125 -0.328125,1.078125 -0.890625,3.203125 -0.890625,3.6875 0,0.140625 0.046875,0.296875 0.1875,0.296875 0.25,0 0.40625,-0.578125 0.59375,-1.265625 C 6.21875,0.90625 6.3125,0.15625 6.40625,-0.53125 c 0.046875,-0.421875 1.03125,-3.25 2.390625,-5.953125 0.125,-0.28125 0.359375,-0.75 0.359375,-0.796875 0,-0.015625 -0.015625,-0.140625 -0.171875,-0.140625 -0.03125,0 -0.109375,0 -0.15625,0.0625 -0.03125,0.046875 -0.625,1.21875 -1.15625,2.390625 -0.25,0.578125 -0.59375,1.359375 -1.15625,2.875 z m 0,0"
           id="path7" />
      </g>
    </g>
    <g
       fill="#000000"
       fill-opacity="1"
       id="g5"
       transform="matrix(1.33333,0,0,1.33333,-3.09483,-2.415)">
      <g
         id="use4"
         transform="translate(10.736,11.987)">
        <path
           d="m 3.375,-1.703125 c 0,-0.0625 -0.046875,-0.109375 -0.109375,-0.109375 -0.109375,0 -0.125,0.03125 -0.1875,0.234375 -0.3125,1.09375 -0.796875,1.453125 -1.1875,1.453125 -0.140625,0 -0.3125,-0.03125 -0.3125,-0.390625 0,-0.328125 0.140625,-0.671875 0.28125,-1.03125 L 2.6875,-3.78125 c 0.03125,-0.09375 0.125,-0.3125 0.125,-0.53125 0,-0.5 -0.359375,-0.953125 -0.953125,-0.953125 -1.09375,0 -1.53125,1.734375 -1.53125,1.828125 0,0.046875 0.046875,0.109375 0.125,0.109375 0.109375,0 0.125,-0.046875 0.171875,-0.21875 0.28125,-1 0.734375,-1.484375 1.203125,-1.484375 0.109375,0 0.3125,0.015625 0.3125,0.390625 0,0.3125 -0.15625,0.703125 -0.25,0.96875 l -0.84375,2.21875 C 0.984375,-1.25 0.90625,-1.0625 0.90625,-0.84375 c 0,0.53125 0.375,0.96875 0.953125,0.96875 1.09375,0 1.515625,-1.75 1.515625,-1.828125 z m -0.09375,-5.75 c 0,-0.1875 -0.140625,-0.40625 -0.40625,-0.40625 -0.265625,0 -0.578125,0.265625 -0.578125,0.578125 0,0.296875 0.25,0.390625 0.390625,0.390625 0.328125,0 0.59375,-0.3125 0.59375,-0.5625 z m 0,0"
           id="path9" />
      </g>
      <g
         id="use5"
         transform="translate(14.729037,11.987)">
        <path
           d="m 4.1875,-3.796875 c 0.046875,-0.1875 0.046875,-0.34375 0.046875,-0.40625 0,-0.6875 -0.515625,-1.0625 -1.0625,-1.0625 -1.203125,0 -1.84375,1.734375 -1.84375,1.828125 0,0.0625 0.046875,0.109375 0.125,0.109375 0.09375,0 0.09375,-0.046875 0.15625,-0.171875 0.484375,-1.15625 1.078125,-1.53125 1.53125,-1.53125 0.25,0 0.390625,0.125 0.390625,0.546875 0,0.28125 -0.046875,0.40625 -0.09375,0.625 l -1.125,4.5 c -0.234375,0.890625 -0.796875,1.5625 -1.453125,1.5625 -0.046875,0 -0.296875,0 -0.53125,-0.125 C 0.625,2.015625 0.84375,1.796875 0.84375,1.5 c 0,-0.1875 -0.140625,-0.375 -0.40625,-0.375 -0.3125,0 -0.59375,0.265625 -0.59375,0.625 0,0.484375 0.53125,0.6875 1.015625,0.6875 0.828125,0 1.90625,-0.609375 2.21875,-1.796875 z m 0.484375,-3.65625 c 0,-0.296875 -0.25,-0.40625 -0.390625,-0.40625 -0.328125,0 -0.59375,0.3125 -0.59375,0.578125 0,0.1875 0.140625,0.390625 0.40625,0.390625 0.265625,0 0.578125,-0.25 0.578125,-0.5625 z m 0,0"
           id="path10" />
      </g>
    </g>
  </g>
</svg>
